<svg width="24.000000" height="24.000000" viewBox="0 0 24 24" fill="none" xmlns="http://www.w3.org/2000/svg" xmlns:xlink="http://www.w3.org/1999/xlink">
	<desc>
			Created with Pixso.
	</desc>
	<defs/>
	<path id="Path" d="M11.75 16.25C11.75 16.3879 11.8621 16.5 12 16.5C12.1379 16.5 12.25 16.3879 12.25 16.25C12.25 16.1121 12.1379 16 11.999 16C11.8611 16 11.749 16.1121 11.75 16.25Z" stroke="#FF303A" stroke-opacity="1.000000" stroke-width="1.500000" stroke-linejoin="round"/>
	<path id="Path" d="M3.58594 16.5859C3.21094 16.2109 3 15.7019 3 15.1721L3 8.82788C3 8.2981 3.21094 7.78906 3.58594 7.41406L7.41406 3.58594C7.78906 3.21094 8.2981 3 8.82788 3L15.1709 3C15.7009 3 16.21 3.21094 16.585 3.58594L20.4131 7.41406C20.7891 7.78906 21 8.2981 21 8.82788L21 15.1709C21 15.7009 20.7891 16.21 20.4141 16.585L16 21L8.82788 21C8.2981 21 7.78906 20.7891 7.41406 20.4141L3.58594 16.5859Z" stroke="#FF303A" stroke-opacity="1.000000" stroke-width="1.500000" stroke-linejoin="round"/>
	<path id="Path" d="M12 12.5L12 7.5" stroke="#FF303A" stroke-opacity="1.000000" stroke-width="1.500000" stroke-linejoin="round" stroke-linecap="round"/>
</svg>
