<svg width="24.951660" height="24.010010" viewBox="0 0 24.9517 24.01" fill="none" xmlns="http://www.w3.org/2000/svg" xmlns:xlink="http://www.w3.org/1999/xlink">
	<desc>
			Created with Pixso.
	</desc>
	<defs/>
	<path id="Path" d="M13.0479 18.1104L5.53467 20.1312C4.70361 20.3534 3.84912 19.8613 3.62402 19.0307L0.802734 8.50635C0.583496 7.67535 1.07422 6.82272 1.90332 6.59555L6.75049 5.00488" stroke="#FFFFFF" stroke-opacity="1.000000" stroke-width="1.500000" stroke-linejoin="round" stroke-linecap="round"/>
	<path id="Path" d="M11.9038 18.1104L19.417 20.1312C20.248 20.3534 21.1025 19.8613 21.3276 19.0307L24.1489 8.50635C24.3682 7.67535 23.8774 6.82272 23.0483 6.59555L18.7505 5.00488" stroke="#FFFFFF" stroke-opacity="1.000000" stroke-width="1.500000" stroke-linejoin="round" stroke-linecap="round"/>
	<rect id="Rectangle" x="6.750488" y="2.004883" rx="1.555560" width="12.000000" height="16.000000" stroke="#FFFFFF" stroke-opacity="1.000000" stroke-width="1.500000" stroke-linejoin="round"/>
	<path id="Path" d="M14.2505 7.50488C14.2505 8.3335 13.5791 9.00488 12.7505 9.00488C11.9219 9.00488 11.2505 8.3335 11.2505 7.50488C11.2505 6.67627 11.9219 6.00488 12.7505 6.00488C13.5791 6.00488 14.2505 6.67627 14.2505 7.50488Z" stroke="#FFFFFF" stroke-opacity="1.000000" stroke-width="1.500000" stroke-linejoin="round"/>
	<path id="Path" d="M15.7505 13.0049C15.6631 12.5662 15.5278 12.1715 15.3545 11.8502C15.062 11.3062 14.6787 11.0049 14.2783 11.0049C13.6118 11.0049 11.8892 11.0049 11.2227 11.0049C10.8223 11.0049 10.4399 11.3076 10.1465 11.8502C9.97314 12.1715 9.83789 12.5662 9.75049 13.0049" stroke="#FFFFFF" stroke-opacity="1.000000" stroke-width="1.500000" stroke-linejoin="round" stroke-linecap="round"/>
</svg>
