<svg width="20.511719" height="19.512207" viewBox="0 0 20.5117 19.5122" fill="none" xmlns="http://www.w3.org/2000/svg" xmlns:xlink="http://www.w3.org/1999/xlink">
	<desc>
			Created with Pixso.
	</desc>
	<defs/>
	<path id="Path" d="M4.40527 18.4702C3.94434 18.1318 3.71484 17.561 3.81543 16.9976L4.62402 12.3589L1.2168 9.09326C0.800781 8.69629 0.647461 8.0957 0.824219 7.54785C1 7 1.47461 6.60107 2.04395 6.52148L6.77539 5.84521L8.91113 1.58447C9.16406 1.07324 9.68555 0.75 10.2559 0.75C10.8262 0.75 11.3467 1.07324 11.6006 1.58447L13.7363 5.84521L18.4668 6.52148C19.0371 6.60107 19.5107 7 19.6875 7.54785C19.8633 8.0957 19.7109 8.69629 19.2949 9.09326L15.8867 12.3589L16.6963 16.9985C16.7969 17.562 16.5674 18.1328 16.1064 18.4712C15.6455 18.8096 15.0312 18.856 14.5244 18.5913L10.2559 16.3853L5.9873 18.5903C5.47949 18.855 4.86621 18.8086 4.40527 18.4702Z" stroke="#FFFFFF" stroke-opacity="1.000000" stroke-width="1.500000" stroke-linejoin="round"/>
</svg>
