<svg width="39.213867" height="8.270996" viewBox="0 0 39.2139 8.271" fill="none" xmlns="http://www.w3.org/2000/svg" xmlns:xlink="http://www.w3.org/1999/xlink">
	<desc>
			Created with Pixso.
	</desc>
	<defs/>
	<path id="Vector" d="M11.71 1.62842L12.4482 1.62842L10.8301 5.78564C10.6602 6.22925 10.4229 6.56592 10.1152 6.79565C9.81445 7.03052 9.46484 7.13477 9.06836 7.10864L9.06836 6.47461C9.55469 6.51099 9.91211 6.24487 10.1396 5.67603L10.2109 5.52734L8.48145 1.62842L9.21875 1.62842L10.5684 4.69751L11.71 1.62842ZM16.2168 5.0498C15.8096 5.44629 15.3154 5.64478 14.7334 5.64478C14.1523 5.64478 13.6572 5.44629 13.25 5.0498C12.8486 4.65308 12.6475 4.16504 12.6475 3.58569C12.6475 3.00635 12.8486 2.51831 13.25 2.12158C13.6572 1.72485 14.1523 1.52661 14.7334 1.52661C15.3154 1.52661 15.8096 1.72485 16.2168 2.12158C16.624 2.51831 16.8281 3.00635 16.8281 3.58569C16.8281 4.16504 16.624 4.65308 16.2168 5.0498ZM14.7334 4.97925C15.1299 4.97925 15.4639 4.84619 15.7334 4.57983C16.0029 4.31372 16.1377 3.98242 16.1377 3.58569C16.1377 3.18896 16.0029 2.85767 15.7334 2.59131C15.4639 2.3252 15.1299 2.19214 14.7334 2.19214C14.3428 2.19214 14.0117 2.3252 13.7422 2.59131C13.4727 2.85767 13.3379 3.18896 13.3379 3.58569C13.3379 3.98242 13.4727 4.31372 13.7422 4.57983C14.0117 4.84619 14.3428 4.97925 14.7334 4.97925ZM20.3789 1.62842L21.0684 1.62842L21.0684 5.54297L20.3789 5.54297L20.3789 4.97925C20.0986 5.42285 19.6699 5.64478 19.0938 5.64478C18.6279 5.64478 18.2549 5.50122 17.9746 5.21411C17.6943 4.92188 17.5547 4.52783 17.5547 4.03198L17.5547 1.62842L18.2441 1.62842L18.2441 3.99268C18.2441 4.31104 18.332 4.55908 18.5068 4.73657C18.6807 4.90869 18.9219 4.99487 19.2285 4.99487C19.5723 4.99487 19.8496 4.89062 20.0615 4.68164C20.2725 4.46777 20.3789 4.1416 20.3789 3.70312L20.3789 1.62842ZM24.0947 1.52661C24.5605 1.52661 24.9326 1.67285 25.2139 1.96509C25.4941 2.2522 25.6338 2.64355 25.6338 3.1394L25.6338 5.54297L24.9434 5.54297L24.9434 3.17847C24.9434 2.86011 24.8564 2.61499 24.6816 2.44263C24.5078 2.26514 24.2666 2.17651 23.96 2.17651C23.6162 2.17651 23.3389 2.28345 23.127 2.49756C22.916 2.7063 22.8096 3.02979 22.8096 3.46826L22.8096 5.54297L22.1191 5.54297L22.1191 1.62842L22.8096 1.62842L22.8096 2.19214C23.0898 1.74854 23.5186 1.52661 24.0947 1.52661ZM27.0811 3.89893C27.1504 4.24854 27.3115 4.52002 27.5654 4.71313C27.8242 4.90625 28.1416 5.00269 28.5176 5.00269C29.041 5.00269 29.4219 4.81226 29.6602 4.43115L30.2471 4.76001C29.8604 5.34985 29.2783 5.64478 28.501 5.64478C27.8721 5.64478 27.3594 5.45166 26.9619 5.06543C26.5713 4.67383 26.375 4.18066 26.375 3.58569C26.375 2.99585 26.5684 2.50537 26.9541 2.11377C27.3408 1.72241 27.8408 1.52661 28.4541 1.52661C29.0361 1.52661 29.5088 1.73022 29.874 2.13721C30.2441 2.53931 30.4287 3.02466 30.4287 3.59351C30.4287 3.69263 30.4209 3.79443 30.4053 3.89893L27.0811 3.89893ZM28.4541 2.1687C28.084 2.1687 27.7764 2.27295 27.5332 2.48169C27.29 2.6853 27.1396 2.95947 27.0811 3.30371L29.7314 3.30371C29.6729 2.93335 29.5244 2.65137 29.2871 2.45825C29.0488 2.26514 28.7715 2.1687 28.4541 2.1687ZM31.6621 2.6853C31.6621 2.83667 31.7393 2.95947 31.8926 3.05322C32.0459 3.14209 32.2314 3.21509 32.4482 3.27246C32.665 3.32471 32.8818 3.38745 33.0986 3.46045C33.3154 3.52832 33.5 3.64844 33.6543 3.82056C33.8076 3.98755 33.8838 4.2041 33.8838 4.47046C33.8838 4.8252 33.7432 5.10962 33.4629 5.32373C33.1885 5.53784 32.834 5.64478 32.4004 5.64478C32.0146 5.64478 31.6836 5.56128 31.4082 5.39429C31.1338 5.22705 30.9375 5.00537 30.8213 4.72876L31.416 4.39209C31.4805 4.57983 31.5996 4.72876 31.7734 4.83838C31.9482 4.948 32.1572 5.00269 32.4004 5.00269C32.6279 5.00269 32.8154 4.96094 32.9639 4.87744C33.1113 4.78882 33.1855 4.65308 33.1855 4.47046C33.1855 4.31909 33.1094 4.19897 32.9551 4.11011C32.8018 4.01636 32.6172 3.94312 32.4004 3.89111C32.1836 3.8335 31.9668 3.76831 31.75 3.69531C31.5332 3.62231 31.3477 3.5022 31.1943 3.33521C31.041 3.16821 30.9648 2.9541 30.9648 2.69312C30.9648 2.354 31.0967 2.07471 31.3613 1.85547C31.6309 1.63623 31.9668 1.52661 32.3682 1.52661C32.6914 1.52661 32.9766 1.59961 33.2256 1.74585C33.4795 1.88672 33.6699 2.08521 33.7969 2.34082L33.2178 2.66187C33.0742 2.32788 32.792 2.16089 32.3682 2.16089C32.1729 2.16089 32.0059 2.20776 31.8691 2.30176C31.7314 2.39038 31.6621 2.51831 31.6621 2.6853ZM35.0117 0.916016C34.8789 0.916016 34.7686 0.871582 34.6777 0.782959C34.5879 0.694092 34.543 0.587158 34.543 0.461914C34.543 0.33667 34.5879 0.229736 34.6777 0.140869C34.7686 0.046875 34.8789 0 35.0117 0C35.1387 0 35.2471 0.046875 35.3369 0.140869C35.4268 0.229736 35.4717 0.33667 35.4717 0.461914C35.4717 0.587158 35.4268 0.694092 35.3369 0.782959C35.2471 0.871582 35.1387 0.916016 35.0117 0.916016ZM34.6621 5.54297L34.6621 1.62842L35.3525 1.62842L35.3525 5.54297L34.6621 5.54297ZM36.9932 2.6853C36.9932 2.83667 37.0693 2.95947 37.2227 3.05322C37.376 3.14209 37.5605 3.21509 37.7783 3.27246C37.9951 3.32471 38.2119 3.38745 38.4287 3.46045C38.6455 3.52832 38.8301 3.64844 38.9834 3.82056C39.1377 3.98755 39.2139 4.2041 39.2139 4.47046C39.2139 4.8252 39.0732 5.10962 38.793 5.32373C38.5186 5.53784 38.1641 5.64478 37.7305 5.64478C37.3447 5.64478 37.0137 5.56128 36.7383 5.39429C36.4639 5.22705 36.2676 5.00537 36.1514 4.72876L36.7471 4.39209C36.8105 4.57983 36.9297 4.72876 37.1035 4.83838C37.2783 4.948 37.4873 5.00269 37.7305 5.00269C37.958 5.00269 38.1455 4.96094 38.2939 4.87744C38.4414 4.78882 38.5156 4.65308 38.5156 4.47046C38.5156 4.31909 38.4395 4.19897 38.2861 4.11011C38.1328 4.01636 37.9473 3.94312 37.7305 3.89111C37.5137 3.8335 37.2969 3.76831 37.0801 3.69531C36.8633 3.62231 36.6777 3.5022 36.5244 3.33521C36.3711 3.16821 36.2949 2.9541 36.2949 2.69312C36.2949 2.354 36.4268 2.07471 36.6914 1.85547C36.9609 1.63623 37.2969 1.52661 37.6982 1.52661C38.0215 1.52661 38.3066 1.59961 38.5557 1.74585C38.8096 1.88672 39 2.08521 39.127 2.34082L38.5479 2.66187C38.4043 2.32788 38.1221 2.16089 37.6982 2.16089C37.5029 2.16089 37.3359 2.20776 37.1992 2.30176C37.0615 2.39038 36.9932 2.51831 36.9932 2.6853Z" fill="#FFFFFF" fill-opacity="1.000000" fill-rule="nonzero"/>
	<path id="Vector" d="M5.47168 6.20996C6.02734 5.78052 6.43262 5.19092 6.63184 4.52319C6.83105 3.85547 6.81348 3.14307 6.58203 2.48535C6.35059 1.82788 5.91699 1.25806 5.3418 0.855713C4.7666 0.453369 4.07812 0.238281 3.37207 0.240723C2.66699 0.243164 1.98047 0.463135 1.4082 0.869629C0.834961 1.27612 0.40625 1.84888 0.179688 2.50806C-0.046875 3.16724 -0.0595703 3.87964 0.144531 4.54614C0.348633 5.2124 0.757812 5.79932 1.31641 6.22461L3.36914 1.62524L5.47168 6.20996Z" fill="#CF2E2E" fill-opacity="1.000000" fill-rule="nonzero"/>
	<path id="Vector" d="M3.38379 1.59082L3.15625 8.271L5.4707 6.21094L3.38379 1.59082Z" fill="#FFFFFF" fill-opacity="1.000000" fill-rule="nonzero"/>
</svg>
