<svg width="20.000000" height="20.000000" viewBox="0 0 20 20" fill="none" xmlns="http://www.w3.org/2000/svg" xmlns:xlink="http://www.w3.org/1999/xlink">
	<desc>
			Created with Pixso.
	</desc>
	<defs/>
	<path id="Path" d="M13.334 17.5L6.66602 17.5C4.36523 17.5 2.5 15.6342 2.5 13.3333L2.5 6.66669C2.5 4.36584 4.36523 2.5 6.66602 2.5L13.334 2.5C15.6348 2.5 17.5 4.36584 17.5 6.66669L17.5 13.3333C17.5 15.6342 15.6348 17.5 13.334 17.5Z" fill="#54C35F" fill-opacity="1.000000" fill-rule="evenodd"/>
	<path id="Path" d="M6.66602 17.5C4.36523 17.5 2.5 15.6342 2.5 13.3333L2.5 6.66669C2.5 4.36584 4.36523 2.5 6.66602 2.5L13.334 2.5C15.6348 2.5 17.5 4.36584 17.5 6.66669L17.5 13.3333C17.5 15.6342 15.6348 17.5 13.334 17.5L6.66602 17.5Z" stroke="#54C35F" stroke-opacity="1.000000" stroke-width="1.500000" stroke-linejoin="round"/>
	<path id="Path" d="M13 8L9.25 12L7 9.59973" stroke="#222222" stroke-opacity="1.000000" stroke-width="1.500000" stroke-linejoin="round" stroke-linecap="round"/>
</svg>
