<svg width="20.000000" height="20.000000" viewBox="0 0 20 20" fill="none" xmlns="http://www.w3.org/2000/svg" xmlns:xlink="http://www.w3.org/1999/xlink">
	<desc>
			Created with Pixso.
	</desc>
	<defs/>
	<path id="Path" d="M13.334 17.5L6.66602 17.5C4.36523 17.5 2.5 15.6342 2.5 13.3333L2.5 6.66669C2.5 4.36584 4.36523 2.5 6.66602 2.5L13.334 2.5C15.6348 2.5 17.5 4.36584 17.5 6.66669L17.5 13.3333C17.5 15.6342 15.6348 17.5 13.334 17.5Z" fill="#6F9FFC" fill-opacity="1.000000" fill-rule="evenodd"/>
	<path id="Path" d="M6.66602 17.5C4.36523 17.5 2.5 15.6342 2.5 13.3333L2.5 6.66669C2.5 4.36584 4.36523 2.5 6.66602 2.5L13.334 2.5C15.6348 2.5 17.5 4.36584 17.5 6.66669L17.5 13.3333C17.5 15.6342 15.6348 17.5 13.334 17.5L6.66602 17.5Z" stroke="#6F9FFC" stroke-opacity="1.000000" stroke-width="1.500000" stroke-linejoin="round"/>
	<path id="Path" d="M11.668 11.6667C10.5098 12.8234 8.63477 12.8234 7.47852 11.6667C6.32227 10.51 6.32227 8.63501 7.47852 7.47833C8.63477 6.32166 10.5098 6.32166 11.668 7.47833C12.8242 8.63501 12.8242 10.51 11.668 11.6667Z" stroke="#222222" stroke-opacity="1.000000" stroke-width="1.500000" stroke-linejoin="round"/>
	<path id="Path" d="M11.666 11.6667L13.332 13.3334L11.666 11.6667Z" stroke="#222222" stroke-opacity="1.000000" stroke-width="1.500000" stroke-linejoin="round"/>
</svg>
