<svg width="20.007812" height="20.008331" viewBox="0 0 20.0078 20.0083" fill="none" xmlns="http://www.w3.org/2000/svg" xmlns:xlink="http://www.w3.org/1999/xlink">
	<desc>
			Created with Pixso.
	</desc>
	<defs/>
	<path id="Path" d="M13.709 16.6707L6.30078 16.6707C4.66406 16.6707 3.33789 15.3915 3.33789 13.8136L3.33789 8.09927C3.33789 7.3103 4.00195 6.67072 4.82031 6.67072L15.1895 6.67072C16.0078 6.67072 16.6719 7.3103 16.6719 8.09927L16.6719 13.8136C16.6719 15.3915 15.3438 16.6707 13.709 16.6707Z" fill="#AF89FF" fill-opacity="1.000000" fill-rule="evenodd"/>
	<path id="Path" d="M6.30078 16.6707C4.66406 16.6707 3.33789 15.3915 3.33789 13.8136L3.33789 8.09927C3.33789 7.3103 4.00195 6.67072 4.82031 6.67072L15.1895 6.67072C16.0078 6.67072 16.6719 7.3103 16.6719 8.09927L16.6719 13.8136C16.6719 15.3915 15.3438 16.6707 13.709 16.6707L6.30078 16.6707Z" stroke="#AF89FF" stroke-opacity="1.000000" stroke-width="1.500000" stroke-linejoin="round"/>
	<path id="Path" d="M6.66992 6.67075L6.66992 5.00406C6.66992 4.08359 7.41602 3.3374 8.33594 3.3374L11.6699 3.3374C12.5898 3.3374 13.3359 4.08359 13.3359 5.00406L13.3359 6.67075" stroke="#AF89FF" stroke-opacity="1.000000" stroke-width="1.500000" stroke-linejoin="round" stroke-linecap="round"/>
	<rect id="Rectangle" x="8.337891" y="9.170715" rx="0.500000" width="3.333333" height="2.500000" stroke="#222222" stroke-opacity="1.000000" stroke-width="1.500000" stroke-linejoin="round"/>
	<path id="Path" d="M11.6699 10.004L14.1719 10.004C15.5527 10.004 16.6699 10.004 16.6699 10.004" stroke="#222222" stroke-opacity="1.000000" stroke-width="1.500000" stroke-linejoin="round" stroke-linecap="round"/>
	<path id="Path" d="M8.33789 10.004L5.83594 10.004C4.45508 10.004 3.33789 10.004 3.33789 10.004" stroke="#222222" stroke-opacity="1.000000" stroke-width="1.500000" stroke-linejoin="round" stroke-linecap="round"/>
</svg>
