<svg width="20.007812" height="20.008331" viewBox="0 0 20.0078 20.0083" fill="none" xmlns="http://www.w3.org/2000/svg" xmlns:xlink="http://www.w3.org/1999/xlink">
	<desc>
			Created with Pixso.
	</desc>
	<defs/>
	<path id="Path" d="M15.0059 17.5073L5.00195 17.5073C4.08008 17.5073 3.33398 16.7608 3.33398 15.8399L3.33398 4.1684C3.33398 3.24753 4.08008 2.50104 5.00195 2.50104L15.0059 2.50104C15.9258 2.50104 16.6738 3.24753 16.6738 4.1684L16.6738 15.8399C16.6738 16.7608 15.9258 17.5073 15.0059 17.5073Z" fill="#DC9350" fill-opacity="1.000000" fill-rule="evenodd"/>
	<path id="Path" d="M5.00195 17.5073C4.08008 17.5073 3.33398 16.7608 3.33398 15.8399L3.33398 4.1684C3.33398 3.24753 4.08008 2.50104 5.00195 2.50104L15.0059 2.50104C15.9258 2.50104 16.6738 3.24753 16.6738 4.1684L16.6738 15.8399C16.6738 16.7608 15.9258 17.5073 15.0059 17.5073L5.00195 17.5073Z" stroke="#DC9350" stroke-opacity="1.000000" stroke-width="1.500000" stroke-linejoin="round"/>
	<path id="Path" d="M6.66992 6.6694L13.3398 6.6694" stroke="#222222" stroke-opacity="1.000000" stroke-width="1.500000" stroke-linejoin="round" stroke-linecap="round"/>
	<path id="Path" d="M6.66992 13.3388L8.33789 13.3388" stroke="#222222" stroke-opacity="1.000000" stroke-width="1.500000" stroke-linejoin="round" stroke-linecap="round"/>
	<path id="Path" d="M13.8477 12.9454L12.2266 14.5669L11.2539 13.594" stroke="#222222" stroke-opacity="1.000000" stroke-width="1.500000" stroke-linejoin="round" stroke-linecap="round"/>
	<path id="Path" d="M6.66992 10.0041L13.3398 10.0041" stroke="#222222" stroke-opacity="1.000000" stroke-width="1.500000" stroke-linejoin="round" stroke-linecap="round"/>
</svg>
