<svg width="24.000000" height="24.000000" viewBox="0 0 24 24" fill="none" xmlns="http://www.w3.org/2000/svg" xmlns:xlink="http://www.w3.org/1999/xlink">
	<desc>
			Created with Pixso.
	</desc>
	<defs/>
	<path id="Path" d="M11 7.50299C11 6.81299 10.6445 6.172 10.0605 5.80698L6.06055 3.30698C4.72852 2.47498 3 3.43198 3 5.00299L3 16.497C3 17.187 3.35547 17.828 3.93945 18.193L7.93945 20.693C9.27148 21.526 11 20.568 11 18.998L11 7.50299Z" stroke="#FF303A" stroke-opacity="1.000000" stroke-width="1.500000" stroke-linejoin="round"/>
	<path id="Path" d="M21 11L15 11" stroke="#FF303A" stroke-opacity="1.000000" stroke-width="1.500000" stroke-linejoin="round" stroke-linecap="round"/>
	<path id="Path" d="M17 9L15 11L17 13" stroke="#FF303A" stroke-opacity="1.000000" stroke-width="1.500000" stroke-linejoin="round" stroke-linecap="round"/>
	<path id="Path" d="M11 19L15 19C16.1055 19 17 18.105 17 17L17 16" stroke="#FF303A" stroke-opacity="1.000000" stroke-width="1.500000" stroke-linejoin="round" stroke-linecap="round"/>
	<path id="Path" d="M17 6L17 5C17 3.89499 16.1055 3 15 3L5 3" stroke="#FF303A" stroke-opacity="1.000000" stroke-width="1.500000" stroke-linejoin="round" stroke-linecap="round"/>
</svg>
