<svg width="20.000000" height="20.000000" viewBox="0 0 20 20" fill="none" xmlns="http://www.w3.org/2000/svg" xmlns:xlink="http://www.w3.org/1999/xlink">
	<desc>
			Created with Pixso.
	</desc>
	<defs/>
	<path id="Path" d="M6.84766 7.77911C6.74414 7.54498 6.80469 7.27081 6.98633 7.08997L7.66992 6.40833C8.22852 5.84912 8.22852 5.05829 7.74023 4.56995L6.76172 3.59161C6.11133 2.9408 5.05469 2.9408 4.4043 3.59161L3.86133 4.13495C3.24414 4.7525 2.98633 5.64331 3.15234 6.52661C3.56445 8.70416 4.83008 11.0883 6.87109 13.1292C8.91211 15.17 11.2949 16.435 13.4727 16.8466C14.3574 17.0133 15.248 16.7558 15.8652 16.1383L16.4082 15.5958C17.0586 14.9449 17.0586 13.89 16.4082 13.2391L15.4297 12.2617C14.9414 11.7733 14.1504 11.7733 13.6621 12.2617L12.9102 13.015C12.7285 13.1958 12.4551 13.2567 12.2207 13.1533C11.1133 12.6641 10.0215 11.9283 9.04688 10.9533C8.07227 9.97833 7.33594 8.88666 6.84766 7.77911Z" stroke="#D3D2D2" stroke-opacity="1.000000" stroke-width="1.000000" stroke-linejoin="round"/>
</svg>
