<svg width="20.007812" height="20.008362" viewBox="0 0 20.0078 20.0084" fill="none" xmlns="http://www.w3.org/2000/svg" xmlns:xlink="http://www.w3.org/1999/xlink">
	<desc>
			Created with Pixso.
	</desc>
	<defs/>
	<path id="Path" d="M14.1719 17.5073L5.83398 17.5073C3.99219 17.5073 2.5 16.0142 2.5 14.1725L2.5 5.83575C2.5 3.99414 3.99219 2.50104 5.83398 2.50104L14.1719 2.50104C16.0137 2.50104 17.5059 3.99414 17.5059 5.83575L17.5059 14.1725C17.5059 16.0142 16.0137 17.5073 14.1719 17.5073Z" fill="#FA6262" fill-opacity="1.000000" fill-rule="evenodd"/>
	<path id="Path" d="M5.83398 17.5073C3.99219 17.5073 2.5 16.0142 2.5 14.1725L2.5 5.83575C2.5 3.99414 3.99219 2.50104 5.83398 2.50104L14.1719 2.50104C16.0137 2.50104 17.5059 3.99414 17.5059 5.83575L17.5059 14.1725C17.5059 16.0142 16.0137 17.5073 14.1719 17.5073L5.83398 17.5073Z" stroke="#FA6262" stroke-opacity="1.000000" stroke-width="1.000000" stroke-linejoin="round"/>
	<path id="Path" d="M6.39258 15.0063C6.08594 15.0063 5.83594 14.7562 5.83594 14.4503L5.83594 13.9984C5.83594 12.7187 6.88281 11.6716 8.16406 11.6716L11.8457 11.6716C13.125 11.6716 14.1719 12.7187 14.1719 13.9992L14.1719 14.451C14.1719 14.7562 13.9219 15.0063 13.6172 15.0063L6.39258 15.0063Z" stroke="#222222" stroke-opacity="1.000000" stroke-width="1.500000" stroke-linejoin="round"/>
	<path id="Path" d="M7.71094 7.30389C7.71094 6.04749 8.74219 5.00208 10.0039 5.00208C11.2656 5.00208 12.2969 6.02917 12.2969 7.28552C12.2969 8.54187 11.2656 9.58734 10.0039 9.58734C8.74219 9.58734 7.71094 8.56024 7.71094 7.30389Z" stroke="#222222" stroke-opacity="1.000000" stroke-width="1.500000" stroke-linejoin="round"/>
</svg>
